<svg width="163" height="54" viewBox="0 0 163 54" fill="none" xmlns="http://www.w3.org/2000/svg">
<path d="M38.0301 5.61905C13.6868 4.18823 -3.49503 23.4706 15.5408 43.5119L15.6965 41.7642C20.0309 45.4409 22.8968 47.2347 33.2016 47.246L32.6424 46.2567C37.2929 45.6577 38.697 45.1256 40.0503 43.9886C30.6626 45.8972 27.9333 44.9249 23.427 42.8992C33.0029 43.6214 37.7388 43.0816 44.0593 38.9438C46.0704 36.2344 46.4188 35.0551 46.3347 33.2591C39.8056 43.8716 17.5408 45.7219 15.8354 26.6354C16.6083 20.2785 20.4769 17.5969 22.6532 17.0133L20.3042 21.9995L25.9476 17.0142C29.3738 14.8985 31.0503 14.2339 33.0883 15.0824C35.2907 13.9054 36.7135 14.1468 39.5449 15.9864L42.192 17.0286C44.0742 15.8609 45.2265 16.8022 47.3 18.7833L44.4111 13.672L45.5733 12.4916L40.5463 10.0708L42.7152 9.45767L41.0747 8.98271L41.3358 8.23091C38.5662 7.72328 36.1399 7.63889 36.2278 6.47626L38.0301 5.61905Z" fill="white"/>
<path d="M75.2997 27.2727C75.2997 30.1065 74.7487 32.497 73.6467 34.4442C72.5446 36.3832 71.0573 37.8539 69.1847 38.8565C67.312 39.8509 65.224 40.348 62.9205 40.348C60.6004 40.348 58.504 39.8467 56.6314 38.8441C54.767 37.8332 53.2839 36.3583 52.1818 34.4194C51.0881 32.4722 50.5412 30.09 50.5412 27.2727C50.5412 24.4389 51.0881 22.0526 52.1818 20.1136C53.2839 18.1664 54.767 16.6957 56.6314 15.7013C58.504 14.6987 60.6004 14.1974 62.9205 14.1974C65.224 14.1974 67.312 14.6987 69.1847 15.7013C71.0573 16.6957 72.5446 18.1664 73.6467 20.1136C74.7487 22.0526 75.2997 24.4389 75.2997 27.2727ZM68.1903 27.2727C68.1903 25.7481 67.9873 24.4638 67.5813 23.4197C67.1836 22.3674 66.5911 21.572 65.804 21.0334C65.0251 20.4865 64.0639 20.2131 62.9205 20.2131C61.777 20.2131 60.8117 20.4865 60.0245 21.0334C59.2456 21.572 58.6532 22.3674 58.2472 23.4197C57.8494 24.4638 57.6506 25.7481 57.6506 27.2727C57.6506 28.7973 57.8494 30.0858 58.2472 31.1381C58.6532 32.1822 59.2456 32.9776 60.0245 33.5245C60.8117 34.0631 61.777 34.3324 62.9205 34.3324C64.0639 34.3324 65.0251 34.0631 65.804 33.5245C66.5911 32.9776 67.1836 32.1822 67.5813 31.1381C67.9873 30.0858 68.1903 28.7973 68.1903 27.2727ZM78.4971 40V14.5455H89.4843C91.3735 14.5455 93.0265 14.8893 94.4434 15.5771C95.8604 16.2648 96.9624 17.255 97.7496 18.5476C98.5367 19.8402 98.9303 21.3897 98.9303 23.196C98.9303 25.0189 98.5243 26.556 97.7123 27.8072C96.9085 29.0584 95.7775 30.003 94.3192 30.641C92.8691 31.279 91.1746 31.598 89.2357 31.598H82.6732V26.2287H87.8437C88.6557 26.2287 89.3476 26.1293 89.9193 25.9304C90.4993 25.7232 90.9426 25.396 91.2492 24.9485C91.5641 24.5011 91.7215 23.9169 91.7215 23.196C91.7215 22.4669 91.5641 21.8744 91.2492 21.4187C90.9426 20.9547 90.4993 20.6149 89.9193 20.3995C89.3476 20.1758 88.6557 20.0639 87.8437 20.0639H85.4076V40H78.4971ZM93.4118 28.3168L99.7755 40H92.2684L86.0539 28.3168H93.4118ZM101.18 20.1136V14.5455H123.304V20.1136H115.647V40H108.836V20.1136H101.18ZM132.815 14.5455V40H125.904V14.5455H132.815ZM142.702 40H135.245L143.647 14.5455H153.093L161.495 40H154.037L148.469 21.5554H148.27L142.702 40ZM141.31 29.9574H155.33V35.1278H141.31V29.9574Z" fill="white"/>
</svg>
